<mxfile host="Electron" agent="Mozilla/5.0 (Windows NT 10.0; Win64; x64) AppleWebKit/537.36 (KHTML, like Gecko) draw.io/24.7.5 Chrome/126.0.6478.183 Electron/31.3.0 Safari/537.36" version="24.7.5">
  <diagram name="Page-1" id="x1FnYsT0M-i-dSA7Jzil">
    <mxGraphModel dx="2794" dy="1332" grid="0" gridSize="10" guides="1" tooltips="1" connect="1" arrows="0" fold="1" page="0" pageScale="1" pageWidth="850" pageHeight="1100" math="0" shadow="0">
      <root>
        <mxCell id="0" />
        <mxCell id="1" parent="0" />
        <mxCell id="_mOuVN5QEDmcfxHgoDoF-1" value="us-east-1" style="points=[[0,0],[0.25,0],[0.5,0],[0.75,0],[1,0],[1,0.25],[1,0.5],[1,0.75],[1,1],[0.75,1],[0.5,1],[0.25,1],[0,1],[0,0.75],[0,0.5],[0,0.25]];outlineConnect=0;gradientColor=none;html=1;whiteSpace=wrap;fontSize=12;fontStyle=0;container=1;pointerEvents=0;collapsible=0;recursiveResize=0;shape=mxgraph.aws4.group;grIcon=mxgraph.aws4.group_region;strokeColor=#00A4A6;fillColor=none;verticalAlign=top;align=left;spacingLeft=30;fontColor=#147EBA;dashed=1;" parent="1" vertex="1">
          <mxGeometry x="-820" y="90" width="1064" height="693" as="geometry" />
        </mxCell>
        <mxCell id="_mOuVN5QEDmcfxHgoDoF-2" value="VPC-01" style="points=[[0,0],[0.25,0],[0.5,0],[0.75,0],[1,0],[1,0.25],[1,0.5],[1,0.75],[1,1],[0.75,1],[0.5,1],[0.25,1],[0,1],[0,0.75],[0,0.5],[0,0.25]];outlineConnect=0;gradientColor=none;html=1;whiteSpace=wrap;fontSize=12;fontStyle=0;container=1;pointerEvents=0;collapsible=0;recursiveResize=0;shape=mxgraph.aws4.group;grIcon=mxgraph.aws4.group_vpc2;strokeColor=#8C4FFF;fillColor=none;verticalAlign=top;align=left;spacingLeft=30;fontColor=#AAB7B8;dashed=0;" parent="_mOuVN5QEDmcfxHgoDoF-1" vertex="1">
          <mxGeometry x="46" y="44" width="993" height="615" as="geometry" />
        </mxCell>
        <mxCell id="_mOuVN5QEDmcfxHgoDoF-3" value="subnet-01" style="sketch=0;outlineConnect=0;gradientColor=none;html=1;whiteSpace=wrap;fontSize=12;fontStyle=0;shape=mxgraph.aws4.group;grIcon=mxgraph.aws4.group_subnet;strokeColor=#879196;fillColor=none;verticalAlign=top;align=left;spacingLeft=30;fontColor=#879196;dashed=0;" parent="_mOuVN5QEDmcfxHgoDoF-2" vertex="1">
          <mxGeometry x="81" y="112" width="347" height="427" as="geometry" />
        </mxCell>
        <mxCell id="_mOuVN5QEDmcfxHgoDoF-4" value="subnet-02" style="sketch=0;outlineConnect=0;gradientColor=none;html=1;whiteSpace=wrap;fontSize=12;fontStyle=0;shape=mxgraph.aws4.group;grIcon=mxgraph.aws4.group_subnet;strokeColor=#879196;fillColor=none;verticalAlign=top;align=left;spacingLeft=30;fontColor=#879196;dashed=0;" parent="_mOuVN5QEDmcfxHgoDoF-2" vertex="1">
          <mxGeometry x="556" y="141" width="300" height="396" as="geometry" />
        </mxCell>
        <mxCell id="_mOuVN5QEDmcfxHgoDoF-7" value="Avilability Zone (us-east-1a)" style="sketch=0;outlineConnect=0;gradientColor=none;html=1;whiteSpace=wrap;fontSize=12;fontStyle=0;shape=mxgraph.aws4.group;grIcon=mxgraph.aws4.group_availability_zone;strokeColor=#545B64;fillColor=none;verticalAlign=top;align=left;spacingLeft=30;fontColor=#545B64;dashed=1;" parent="_mOuVN5QEDmcfxHgoDoF-2" vertex="1">
          <mxGeometry x="46" y="77" width="403" height="516" as="geometry" />
        </mxCell>
        <mxCell id="_mOuVN5QEDmcfxHgoDoF-8" value="Avilability Zone (us-east-1b)" style="sketch=0;outlineConnect=0;gradientColor=none;html=1;whiteSpace=wrap;fontSize=12;fontStyle=0;shape=mxgraph.aws4.group;grIcon=mxgraph.aws4.group_availability_zone;strokeColor=#545B64;fillColor=none;verticalAlign=top;align=left;spacingLeft=30;fontColor=#545B64;dashed=1;" parent="_mOuVN5QEDmcfxHgoDoF-2" vertex="1">
          <mxGeometry x="511" y="68" width="402" height="515" as="geometry" />
        </mxCell>
        <mxCell id="_mOuVN5QEDmcfxHgoDoF-13" value="Internet Gateway" style="sketch=0;outlineConnect=0;fontColor=#232F3E;gradientColor=none;fillColor=#8C4FFF;strokeColor=none;dashed=0;verticalLabelPosition=bottom;verticalAlign=top;align=center;html=1;fontSize=12;fontStyle=0;aspect=fixed;pointerEvents=1;shape=mxgraph.aws4.internet_gateway;" parent="_mOuVN5QEDmcfxHgoDoF-2" vertex="1">
          <mxGeometry x="457.5" y="-36" width="82" height="82" as="geometry" />
        </mxCell>
        <mxCell id="d5e3lPCvOCd59ADGwWJ7-2" value="" style="outlineConnect=0;dashed=0;verticalLabelPosition=bottom;verticalAlign=top;align=center;html=1;shape=mxgraph.aws3.rds_db_instance;fillColor=#2E73B8;gradientColor=none;" parent="_mOuVN5QEDmcfxHgoDoF-2" vertex="1">
          <mxGeometry x="209.37" y="231" width="90.25" height="109" as="geometry" />
        </mxCell>
        <mxCell id="d5e3lPCvOCd59ADGwWJ7-3" value="" style="outlineConnect=0;dashed=0;verticalLabelPosition=bottom;verticalAlign=top;align=center;html=1;shape=mxgraph.aws3.rds_db_instance_read_replica;fillColor=#2E73B8;gradientColor=none;" parent="_mOuVN5QEDmcfxHgoDoF-2" vertex="1">
          <mxGeometry x="676.5" y="233" width="95" height="104" as="geometry" />
        </mxCell>
        <mxCell id="d5e3lPCvOCd59ADGwWJ7-12" value="Asynchronous" style="text;html=1;whiteSpace=wrap;overflow=hidden;rounded=0;fontColor=#000000;" parent="_mOuVN5QEDmcfxHgoDoF-2" vertex="1">
          <mxGeometry x="440.1199999999999" y="260" width="93.88" height="35" as="geometry" />
        </mxCell>
        <mxCell id="d5e3lPCvOCd59ADGwWJ7-14" style="edgeStyle=orthogonalEdgeStyle;rounded=0;orthogonalLoop=1;jettySize=auto;html=1;dashed=1;flowAnimation=1;" parent="_mOuVN5QEDmcfxHgoDoF-2" source="d5e3lPCvOCd59ADGwWJ7-2" target="d5e3lPCvOCd59ADGwWJ7-3" edge="1">
          <mxGeometry relative="1" as="geometry">
            <Array as="points" />
          </mxGeometry>
        </mxCell>
        <mxCell id="d5e3lPCvOCd59ADGwWJ7-15" value="- Primary Database  &#xa;- Handles both read and write operations" style="text;html=1;whiteSpace=wrap;overflow=hidden;rounded=0;fontColor=#000000;" parent="_mOuVN5QEDmcfxHgoDoF-2" vertex="1">
          <mxGeometry x="155" y="349" width="234" height="74" as="geometry" />
        </mxCell>
        <mxCell id="d5e3lPCvOCd59ADGwWJ7-16" value="- Read-Only Database&#xa;- Offloads read queries" style="text;html=1;whiteSpace=wrap;overflow=hidden;rounded=0;fontColor=#000000;" parent="_mOuVN5QEDmcfxHgoDoF-2" vertex="1">
          <mxGeometry x="653" y="349" width="142" height="48" as="geometry" />
        </mxCell>
        <mxCell id="GLrmfydpYi56pfrAxM5I-3" value="Security Group" style="text;html=1;whiteSpace=wrap;overflow=hidden;rounded=0;fontColor=#000000;" vertex="1" parent="_mOuVN5QEDmcfxHgoDoF-2">
          <mxGeometry x="445.62" y="407" width="88.38" height="31" as="geometry" />
        </mxCell>
        <mxCell id="d5e3lPCvOCd59ADGwWJ7-18" value="&lt;font style=&quot;font-size: 50px;&quot;&gt;Internet&lt;/font&gt;" style="image;aspect=fixed;perimeter=ellipsePerimeter;html=1;align=center;shadow=0;dashed=0;spacingTop=3;image=img/lib/active_directory/internet_cloud.svg;strokeWidth=31;" parent="1" vertex="1">
          <mxGeometry x="-353.75" y="-112" width="156.5" height="98.59" as="geometry" />
        </mxCell>
        <mxCell id="d5e3lPCvOCd59ADGwWJ7-19" style="edgeStyle=orthogonalEdgeStyle;rounded=0;orthogonalLoop=1;jettySize=auto;html=1;dashed=1;flowAnimation=1;" parent="1" source="_mOuVN5QEDmcfxHgoDoF-13" target="d5e3lPCvOCd59ADGwWJ7-18" edge="1">
          <mxGeometry relative="1" as="geometry" />
        </mxCell>
        <mxCell id="GLrmfydpYi56pfrAxM5I-2" value="" style="rounded=1;arcSize=10;dashed=1;strokeColor=#ff0000;fillColor=none;gradientColor=none;dashPattern=8 4;strokeWidth=2;" vertex="1" parent="1">
          <mxGeometry x="-624" y="345" width="671" height="199.5" as="geometry" />
        </mxCell>
      </root>
    </mxGraphModel>
  </diagram>
</mxfile>
